:SAMPLES-PER-SECOND 30
:FULLY-SPECIFIED
:DEGREES
563
root  3.32816 40.3201 -4.3038 150.887 -86.6433 -150.485
RightUpLeg  -10.5461 -15.5207 -0.619491
RightLeg  13.7944 -4.16409 2.40165
RightFoot  -3.39092 -0.0377949 0.204231
RightToes  0.00048216 0.542163 -0.142577
Spine  14.5741 0.218417 5.01021
Spine1  10.0136 1.94345 -3.90938
HEad  1.56144 19.6437 -10.1685
LeftShoulder1  6.4364 -9.86219 -41.7757
LeftArm  -21.9381 24.5613 -29.4474
LeftForeArm  27.2365 -37.4272 -6.90619
LeftHand  -0.25398 0.0180481 5.50724
RightShoulder  5.06231 8.66225 35.6371
RightArm  2.78685 -34.4146 33.1697
RightForeArm  20.2688 14.7766 6.31743
RightHand  -0.0474397 -6.1453 0.560514
LeftUpLeg  1.40523 11.7121 8.41118
LeftLeg  12.4594 6.18632 0.336749
LeftFoot  -11.9731 0.027879 -7.89763
LeftToes  1.06243e-005 4.65856e-005 -8.18505e-006
564
root  4.11608 40.3026 -3.87979 176.324 -86.4221 -175.33
RightUpLeg  -14.543 -18.2228 -0.486335
RightLeg  16.282 -0.134095 0.538495
RightFoot  -1.69926 -0.103237 1.06898
RightToes  0.00048216 0.542163 -0.142577
Spine  15.8141 0.520664 0.893941
Spine1  8.4418 1.24728 -2.32086
HEad  -1.1019 17.4769 -8.64534
LeftShoulder1  6.5012 -9.9436 -41.9538
LeftArm  -21.2933 23.8154 -29.45
LeftForeArm  28.2594 -38.4373 -7.1284
LeftHand  -0.25398 0.0180481 5.50724
RightShoulder  5.09493 8.63814 35.9809
RightArm  -4.11943 -32.7684 33.4137
RightForeArm  21.0905 13.492 5.79612
RightHand  -0.0413122 -5.95075 -0.754579
LeftUpLeg  0.0747492 10.6705 6.51674
LeftLeg  11.4339 8.46367 -1.13185
LeftFoot  -11.847 0.0425255 -6.24519
LeftToes  1.06243e-005 4.65856e-005 -8.18505e-006
565
root  4.80908 40.3103 -3.48224 -169.09 -86.0871 170.345
RightUpLeg  -17.831 -16.546 -1.33502
RightLeg  19.505 0.582427 -0.0763083
RightFoot  0.210992 -0.22568 2.24679
RightToes  0.00048216 0.542163 -0.142577
Spine  16.6519 0.420646 -1.44485
Spine1  7.34923 0.652473 -1.68846
HEad  -2.82617 16.2762 -7.37655
LeftShoulder1  6.5739 -10.1067 -41.9132
LeftArm  -20.4394 22.9646 -29.0515
LeftForeArm  28.9079 -38.7434 -7.17669
LeftHand  -0.25398 0.0180481 5.50724
RightShoulder  5.05277 8.50605 36.0881
RightArm  -11.0817 -30.9362 35.1818
RightForeArm  17.6249 13.1032 5.00441
RightHand  -0.0505957 -5.02411 -4.29421
LeftUpLeg  -1.54161 9.99211 4.90035
LeftLeg  11.7809 9.90363 -1.47731
LeftFoot  -10.8023 0.0919815 -5.69262
LeftToes  1.06243e-005 4.65856e-005 -8.18505e-006
566
root  5.34906 40.3982 -3.06823 -171.585 -85.5088 172.428
RightUpLeg  -19.4929 -12.8402 -2.2911
RightLeg  23.2099 0.0693868 -0.188529
RightFoot  1.35769 -0.284009 2.64627
RightToes  0.00048216 0.542163 -0.142577
Spine  17.2249 0.119464 -0.797924
Spine1  6.87604 0.635957 -2.57603
HEad  -3.24848 15.4509 -6.80709
LeftShoulder1  6.6807 -10.3307 -41.9055
LeftArm  -19.8725 22.2457 -28.5966
LeftForeArm  29.6781 -38.5399 -7.07095
LeftHand  -0.25398 0.0180481 5.50724
RightShoulder  5.01591 8.44912 35.9829
RightArm  -14.9615 -29.4514 37.2692
RightForeArm  10.3951 14.3871 4.69865
RightHand  -0.122722 -3.78231 -7.46145
LeftUpLeg  -1.57334 9.33099 4.49202
LeftLeg  11.1456 11.0956 -1.87791
LeftFoot  -9.81205 0.13224 -5.50598
LeftToes  1.06243e-005 4.65856e-005 -8.18505e-006
567
root  5.75426 40.5142 -2.68047 179.89 -84.4984 -179.86
RightUpLeg  -20.0163 -8.7694 -2.86341
RightLeg  27.2484 -1.78671 -1.24417
RightFoot  0.767769 -0.153439 1.46855
RightToes  0.00048216 0.542163 -0.142577
Spine  17.624 0.065996 0.877377
Spine1  6.58402 1.06603 -3.64626
HEad  -2.88089 14.7474 -6.82747
LeftShoulder1  6.7491 -10.4276 -42.0511
LeftArm  -20.0683 22.0465 -28.605
LeftForeArm  30.1807 -38.2435 -6.95575
LeftHand  -0.25398 0.0180481 5.50724
RightShoulder  5.04338 8.56905 35.7982
RightArm  -13.4315 -28.198 38.1773
RightForeArm  3.10884 17.5595 4.91371
RightHand  -0.152049 -3.51979 -8.12797
LeftUpLeg  -0.502927 8.33375 4.78079
LeftLeg  9.68622 13.0265 -2.57097
LeftFoot  -9.31779 0.142333 -4.89922
LeftToes  1.06243e-005 4.65856e-005 -8.18505e-006
568
root  6.07047 40.6063 -2.37804 176.003 -83.7163 -176.55
RightUpLeg  -19.9827 -5.54942 -3.49171
RightLeg  30.7204 -4.9598 -3.40793
RightFoot  -0.873022 0.0531198 -0.650216
RightToes  0.00048216 0.542163 -0.142577
Spine  17.5984 0.221274 1.55266
Spine1  6.18602 1.28913 -3.59672
HEad  -2.54166 14.1084 -6.7355
LeftShoulder1  6.73715 -10.3712 -42.1532
LeftArm  -20.7238 22.4944 -28.9224
LeftForeArm  29.7318 -37.9642 -6.90429
LeftHand  -0.25398 0.0180481 5.50724
RightShoulder  5.05118 8.64805 35.5947
RightArm  -8.71136 -26.784 37.9289
RightForeArm  0.364489 21.9714 4.95826
RightHand  -0.0975706 -4.20902 -7.17555
LeftUpLeg  0.272821 7.61702 4.82039
LeftLeg  8.42663 14.6112 -3.03813
LeftFoot  -8.78607 0.147153 -4.23607
LeftToes  1.06243e-005 4.65856e-005 -8.18505e-006
569
root  6.32267 40.6625 -2.16302 175.621 -83.9093 -176.353
RightUpLeg  -19.3681 -4.01837 -4.34113
RightLeg  32.5046 -6.97322 -4.99104
RightFoot  -2.04891 0.154821 -2.05647
RightToes  0.00048216 0.542163 -0.142577
Spine  17.041 0.206683 1.31428
Spine1  5.75214 0.996768 -2.72031
HEad  -2.65169 13.4133 -6.07514
LeftShoulder1  6.71745 -10.3346 -42.1403
LeftArm  -21.0922 23.1993 -28.7399
LeftForeArm  28.8126 -37.3954 -6.80122
LeftHand  -0.25398 0.0180481 5.50724
RightShoulder  4.94794 8.46811 35.3615
RightArm  -6.65908 -24.9631 37.6371
RightForeArm  4.18593 25.7883 5.28126
RightHand  -0.115956 -3.97217 -7.3727
LeftUpLeg  0.347427 7.24504 4.48649
LeftLeg  7.71279 14.8768 -3.22246
LeftFoot  -8.14109 0.158702 -3.92844
LeftToes  1.06243e-005 4.65856e-005 -8.18505e-006
